<svg style="display: none;">
    <symbol id="site-logo" xmlns="http://www.w3.org/2000/svg" viewBox="0 0 1026.77 190">
        <title>ProIot Logo</title>
        <circle fill="currentColor" cx="340.63" cy="155.29" r="15.88" />
        <path fill="currentColor" d="M273,195.54C162,185.36-5,157.4,14.13,148.72c8.72-3.95,169.6,21.68,270.54,15.93,35.55-2,52.6-10.21,52.86.08C337.67,170.72,316.82,199.56,273,195.54Z" transform="translate(-12.62 -5.93)" />
        <path fill="currentColor" d="M282.41,107.32a665.72,665.72,0,0,0-56.73-48.48,514.2,514.2,0,0,0-53.39-34C150.13,12.54,133.5,5.93,124.94,5.93a13,13,0,0,0-1.94.13,4.36,4.36,0,0,0-3.07,1.51c-4.13,5.66-1.52,20.37,6.65,37.47,8.49,17.78,21,34.23,32.64,42.95s43.25,25,75.42,39c34.35,14.89,61,23.46,72.71,23.46a17.27,17.27,0,0,0,2.53-.17,4.27,4.27,0,0,0,2.62-1.06c.76-1,1.72-4.6-5.78-15C301.55,127,293.37,117.92,282.41,107.32Z" transform="translate(-12.62 -5.93)" />
        <path fill="currentColor" d="M156.22,92c-12.07-9-24.93-25.8-33.74-43.94-46.25-12.7-102.09-23.25-107.64-8-7.86,21.63,41.23,76.31,80.6,91,33.68,12.57,169.94,33.48,209.36,24.25C271.63,152.85,177,107.56,156.22,92Z" transform="translate(-12.62 -5.93)" />
        <path fill="currentColor" d="M420.25,42.29h52.57c31,0,51,16,51,43.1v.35c0,28.91-22.25,44.15-52.74,44.15H454.24v35h-34Zm50.11,61c12.09,0,19.45-6.3,19.45-15.94V87c0-10.51-7.36-16.12-19.62-16.12H454.24v32.41Z" transform="translate(-12.62 -5.93)" />
        <path fill="currentColor" d="M528,42.29h58c18.75,0,31.71,4.91,40,13.32,7.18,7,10.86,16.47,10.86,28.56v.35c0,18.74-10,31.18-25.23,37.66l29.26,42.75H601.58l-24.7-37.14H562v37.14H528Zm56.41,58.87c11.57,0,18.22-5.61,18.22-14.54v-.35c0-9.64-7-14.54-18.39-14.54H562v29.43Z" transform="translate(-12.62 -5.93)" />
        <path fill="currentColor" d="M639.6,104v-.35c0-35.21,28.38-63.77,66.22-63.77s65.88,28.21,65.88,63.42v.35c0,35.22-28.38,63.78-66.23,63.78S639.6,139.18,639.6,104ZM737,104v-.35c0-17.69-12.79-33.11-31.54-33.11-18.57,0-31,15.07-31,32.76v.35c0,17.7,12.79,33.12,31.36,33.12C724.57,136.73,737,121.66,737,104Z" transform="translate(-12.62 -5.93)" />
        <path fill="currentColor" d="M787.81,164.93V42.3h9.11V164.93Z" transform="translate(-12.62 -5.93)" />
        <path fill="currentColor" d="M937.87,127.7a63.73,63.73,0,0,1-12.53,20.24,59.41,59.41,0,0,1-19.54,13.93A61,61,0,0,1,880.49,167a59.64,59.64,0,0,1-44.68-19A61.74,61.74,0,0,1,823.37,128,66.3,66.3,0,0,1,819,104v-.35a65.78,65.78,0,0,1,4.47-24.09A63.84,63.84,0,0,1,836,59.29a59.45,59.45,0,0,1,19.45-13.93,64.56,64.56,0,0,1,50.63,0A60.17,60.17,0,0,1,925.51,59.2,61.74,61.74,0,0,1,938,79.26a66.34,66.34,0,0,1,4.38,24,.23.23,0,0,1,0,.36A65.93,65.93,0,0,1,937.87,127.7Zm-5-24.08a58.35,58.35,0,0,0-3.94-21.47,55,55,0,0,0-10.86-17.52,51.49,51.49,0,0,0-16.56-11.82,51.17,51.17,0,0,0-58.43,11.65,53.71,53.71,0,0,0-10.77,17.43,58.83,58.83,0,0,0-3.85,21.37v.36a58.34,58.34,0,0,0,3.94,21.46,54.6,54.6,0,0,0,10.86,17.52,51.27,51.27,0,0,0,16.56,11.82,51.16,51.16,0,0,0,58.42-11.65A53.56,53.56,0,0,0,929,125.34,59,59,0,0,0,932.87,104Z" transform="translate(-12.62 -5.93)" />
        <path fill="currentColor" d="M996.64,50.53v114.4h-9.11V50.53H944.79V42.3h94.6v8.23Z" transform="translate(-12.62 -5.93)" />
    </symbol>
</svg>